<?xml version="1.0" encoding="utf-8"?>
<!-- Generator: Adobe Illustrator 27.5.0, SVG Export Plug-In . SVG Version: 6.00 Build 0)  -->
<svg version="1.1" id="Layer_1" xmlns="http://www.w3.org/2000/svg" xmlns:xlink="http://www.w3.org/1999/xlink" x="0px" y="0px"
	 viewBox="0 0 800 800" style="enable-background:new 0 0 800 800;" xml:space="preserve">
<style type="text/css">
	.st0{fill-rule:evenodd;clip-rule:evenodd;fill:#987160;}
	.st1{fill-rule:evenodd;clip-rule:evenodd;fill:#00E2A5;}
	.st2{fill-rule:evenodd;clip-rule:evenodd;fill:url(#redcolor_00000006700063972557536840000016953435226578215052_);}

	#redcolor {
  transition: fill 0.3s ease-in-out; /* Apply a transition effect to the fill property */
  fill: url(#redcolor_00000164485911816472945680000002570131227082430385_); /* Set the initial fill color using the gradient */
}

#redcolor:hover {
  fill: #ff0000; /* Change the fill color to red when hovered */
}
</style>
<path id="path-1" class="st0" d="M360.1,226.6c-1.6-23.4-5.3-50.4-12.9-76.8C333.6,102.1,297.4,46.3,291,36s-8.4-25.1,8.2-33.4
	s31.4,5.1,41.6,19.2c0,0,36.5,52.5,54.4,115.2c8.5,29.8,12.7,62.1,14.7,89.6H360.1z"/>
<path id="path-2" class="st1" d="M590.6,17.7c110.1-29.5,196.5-2.4,201.3,15.6c5.4,20.1-56.4,84.7-166.5,114.2
	c-110.1,29.5-192.6,16.8-201.3-15.6C415.4,99.4,480.5,47.2,590.6,17.7z"/>
<linearGradient id="redcolor_00000164485911816472945680000002570131227082430385_" gradientUnits="userSpaceOnUse" x1="183.5938" y1="547.438" x2="183.5938" y2="737.438" gradientTransform="matrix(3.2 0 0 -3.2 -203.5 2551.2)">
	<stop  offset="0" style="stop-color:#FCE202"/>
	<stop  offset="1" style="stop-color:#CFE700"/>
</linearGradient>
<path id="redcolor" style="fill-rule:evenodd;clip-rule:evenodd;fill:url(#redcolor_00000164485911816472945680000002570131227082430385_);" d="
	M478.4,799.4c-33.2,0-65-6.3-94.4-17.9c-29.4,11.6-61.2,17.9-94.4,17.9c-152,0-284.8-199.7-284.8-363.2
	c0-163.5,68.8-244.8,220.8-244.8c51.6,0,99.7,30.1,158.4,30.1s106.8-30.1,158.4-30.1c152,0,220.8,81.3,220.8,244.8
	C763.2,599.7,630.4,799.4,478.4,799.4z"/>
</svg>
