<?xml version="1.0" encoding="utf-8"?>
<!-- Generator: Adobe Illustrator 27.5.0, SVG Export Plug-In . SVG Version: 6.00 Build 0)  -->
<svg version="1.1" id="browning" xmlns="http://www.w3.org/2000/svg" xmlns:xlink="http://www.w3.org/1999/xlink" x="0px" y="0px"
	 viewBox="0 0 800 800" style="enable-background:new 0 0 800 800;" xml:space="preserve">
<style type="text/css">
	.st0{fill:none;stroke:#000000;stroke-width:33.3333;stroke-linecap:round;stroke-miterlimit:133.3333;}
</style>
<g id="Cashew">
	<path id="Combined-Shape" class="st0" d="M92.2,442l11.5,8.4c43,31.2,70.8,79.2,76.3,132.1l3.2,30.4c2.5,24.3,24.3,42,48.7,39.5
		c2.6-0.3,5.2-0.8,7.7-1.5c29.8-8.6,49.7-36.6,48.1-67.6l-5.4-102.7c-2.7-51-29.7-97.5-72.6-125.2l-10.1-6.5
		c-34.5-22.3-79.6-19.2-110.8,7.5c-22.9,19.6-25.6,54.1-6,77C85.6,436.5,88.7,439.4,92.2,442z M123.3,411.6
		c55.1,42.1,91.1,104.4,100,173.2"/>
	<path id="Combined-Shape-Copy-3" class="st0" d="M499.4,181.4l-9,11.1c-33.5,41.3-47.8,94.8-39.5,147.3l4.8,30.2
		c3.9,24.2-12.6,46.9-36.8,50.7c-2.6,0.4-5.2,0.6-7.8,0.5c-31-0.6-57.5-22.5-63.9-52.8l-21.3-100.6c-10.6-49.9,3.4-101.9,37.7-139.7
		l8.1-8.9c27.6-30.5,71.9-39.2,109-21.4c27.2,13,38.7,45.6,25.7,72.8C504.4,174.4,502.1,178,499.4,181.4z M461.4,160.1
		c-42.3,54.9-61,124.5-51.8,193.2"/>
	<path id="Combined-Shape-Copy-4" class="st0" d="M452.4,524.3l13.3-5.1c49.6-19,88.9-58.2,107.9-107.9l10.9-28.5
		c8.7-22.9,34.4-34.3,57.2-25.5c2.5,0.9,4.8,2.1,7.1,3.4c26.6,16,38.6,48.2,29,77.7l-31.8,97.8c-15.8,48.5-53.9,86.5-102.5,102.2
		l-11.4,3.7c-39.1,12.6-81.9-2-105.1-35.9c-17.1-24.9-10.7-58.9,14.2-75.9C444.6,527.8,448.4,525.8,452.4,524.3z M474.7,561.7
		c64.1-26.4,115-77.3,141.4-141.4"/>
</g>
</svg>
