<?xml version="1.0" encoding="utf-8"?>
<!-- Generator: Adobe Illustrator 27.5.0, SVG Export Plug-In . SVG Version: 6.00 Build 0)  -->
<svg version="1.1" id="_x34_" xmlns="http://www.w3.org/2000/svg" xmlns:xlink="http://www.w3.org/1999/xlink" x="0px" y="0px"
	 viewBox="0 0 800 800" style="enable-background:new 0 0 800 800;" xml:space="preserve">
<style type="text/css">
	.st4{fill:#73B431;}
	.st5{fill:#82BA46;}
	.st6{fill:#009900;}

	#move{
		transition: transform 0.5s ease-in-out; 
	}
	.move:hover {
  transform: translateX(100px); /* Move the element 100 pixels to the right */
}
</style>
<g id="move">
	<path class="st4" d="M479,130.4c-23.6,23.6-53.2,36.7-81.8,38.7c-0.2,0-0.5,0.1-0.7,0c-13.5,0.9-26.7-0.7-38.9-4.9
		c-0.2,0.1-0.4,0-0.6-0.1c-0.8-0.2-1.5-0.5-2.3-0.8L501.5,16.6L512,6c3.2,8.5,5.1,17.5,5.7,26.7C520.3,65.9,507.1,102.3,479,130.4z"
		/>
	<path class="st5" d="M512,6l-10.4,10.5L354.7,163.3c-14.6-38.9-2.9-88.4,32.9-124.4c28.1-28,64.5-41.3,97.7-38.6
		C494.5,0.9,503.4,2.8,512,6z"/>
</g>
<g id="colorchange">
	<path class="st6" d="M667.6,481.7c0,35.7-6.1,70.1-17.6,102.1c-0.8,2.4-1.7,4.9-2.7,7.3c-1.8,4.8-3.8,9.6-5.9,14.5
		c-1.1,2.4-2.2,4.7-3.3,7.1c-3.3,6.9-6.9,13.9-10.6,20.6c-2.6,4.5-5.3,9-8.1,13.5c-2.8,4.3-5.7,8.6-8.7,13c-1.5,2.1-3,4.2-4.6,6.4
		c-3.1,4-6.1,7.9-9.2,11.7c-12.6,15.5-26.8,29.7-42.3,42.7c-3.8,3.2-7.7,6.4-11.7,9.4c-4,3.1-8.1,6.1-12.2,8.9
		c-4.1,2.9-8.3,5.6-12.5,8.3c-0.2,0.1-0.3,0.2-0.5,0.3c-4.2,2.6-8.4,5.2-12.7,7.6c-3.9,2.2-7.8,4.3-11.7,6.4
		c-0.6,0.3-1.2,0.6-1.8,0.9c-4.2,2.1-8.4,4.1-12.6,6.1c-0.4,0.2-0.8,0.4-1.2,0.5c-18.8,8.6-38.5,15.6-59,20.6
		c-10.2,2.6-20.7,4.7-31.3,6.2c-7.2,1.1-14.6,1.9-22,2.6c-2.6,0.2-5.1,0.5-7.7,0.6c-0.8,0.1-1.7,0.2-2.5,0.2v-0.1
		c-6.9,0.4-13.9,0.8-20.9,0.8c-54.3,0-105.5-12.3-150.8-34.3c-68.1-32.8-122.7-87.3-153.9-153.9C10.3,572,0,528,0,481.7
		c0-175.8,149.5-318.3,333.8-318.3c7.1,0,14,0.3,20.9,0.7v0c0.2,0,0.4,0,0.6,0c0.6,0,1.2,0,1.7,0.1c10.1,0.6,20.1,1.7,29.9,3.3
		c3.5,0.4,6.9,1,10.3,1.7c1.8,0.3,3.5,0.8,5.2,1.1c5.3,1,10.6,2.2,15.8,3.4c20.5,5,40.3,11.9,59,20.6c4.6,2.1,9.2,4.3,13.9,6.6
		c0.6,0.3,1.2,0.6,1.8,0.9c3.9,2.1,7.8,4.2,11.7,6.4c4.3,2.4,8.5,5,12.7,7.6c0.2,0.1,0.3,0.2,0.5,0.3c4.2,2.7,8.4,5.4,12.5,8.3
		c4.1,2.8,8.2,5.8,12.2,8.9c4,3,7.9,6.2,11.7,9.4c15.5,12.9,29.6,27.2,42.3,42.7c3.1,3.8,6.1,7.7,9.2,11.7c1.6,2.2,3.1,4.3,4.6,6.4
		c3,4.3,5.9,8.6,8.7,13c2.8,4.4,5.5,8.9,8.1,13.5c3.7,6.7,7.3,13.7,10.6,20.6c1.1,2.4,2.2,4.7,3.3,7.1c2.1,4.8,4.1,9.6,5.9,14.5
		c1,2.4,1.9,4.9,2.7,7.3c2.7,7.4,5,15,7,22.6c0.6,2,1.1,4,1.6,6C664.5,431.8,667.6,456.4,667.6,481.7z"/>
</g>
<path class="st2" d="M354.7,164v635.3C529.3,789,667.6,650.8,667.6,481.7C667.6,312.6,529.3,174.3,354.7,164z"/>
</svg>
