<?xml version="1.0" encoding="utf-8"?>
<!-- Generator: Adobe Illustrator 27.5.0, SVG Export Plug-In . SVG Version: 6.00 Build 0)  -->
<svg version="1.1" id="ART" xmlns="http://www.w3.org/2000/svg" xmlns:xlink="http://www.w3.org/1999/xlink" x="0px" y="0px"
	 viewBox="0 0 800 800" style="enable-background:new 0 0 800 800;" xml:space="preserve">
<style type="text/css">
	.st11{fill:none;stroke:#000000;stroke-width:21.3333;stroke-linecap:round;stroke-linejoin:round;stroke-miterlimit:21.3333;}
	.st13{fill:#D3C300;stroke:#000000;stroke-width:21.3333;stroke-miterlimit:53.3333;}
	.st12{fill:#FFFFFF;}
	.st13{fill:#13A856;stroke:#000000;stroke-width:21.3333;stroke-miterlimit:53.3333;}
</style>
<path class="st11" d="M399.5,253.9c0,0,34.6-163.3-33.2-227.3"/>
<path id="brightyellow" class="st1" d="M394.7,134.8c-230.6,0-356.9,339.4-87.8,608.4c66.1,65.9,195.7,8.9,195.7-28.5
	s114.2-243.8,114.2-386.6S509.1,134.8,394.7,134.8z"/>
<path class="st12" d="M260.2,234.1c46.1-48.7,103.5-57,116.1-33.2s-33.1,70.8-57.6,93.9s-52,85.9-77.4,84.3S205.2,292.2,260.2,234.1z
	"/>
<path class="st12" d="M260.2,234.1c46.1-48.7,103.5-57,116.1-33.2s-33.1,70.8-57.6,93.9s-52,85.9-77.4,84.3S205.2,292.2,260.2,234.1z
	"/>
<path class="st13" d="M404.7,132.3c131.7,61.5,93.2,248.7,239.4,278C662.2,293.8,607.6,66.9,404.7,132.3z"/>
</svg>
