<?xml version="1.0" encoding="utf-8"?>
<!-- Generator: Adobe Illustrator 27.5.0, SVG Export Plug-In . SVG Version: 6.00 Build 0)  -->
<svg version="1.1" id="Layer_1" xmlns="http://www.w3.org/2000/svg" xmlns:xlink="http://www.w3.org/1999/xlink" x="0px" y="0px"
	 viewBox="0 0 64 64" style="enable-background:new 0 0 64 64;" xml:space="preserve">
<style type="text/css">
	.st0{fill:#A83931;}
	.st1{fill:#FF7C76;}
	.st2{fill:#AA4934;}
	.st3{fill:#EDA7A2;}
	.st4{fill:#A17767;}
	.st5{fill:#FFE1D2;}
	.st6{fill:#8F6659;}
</style>
<g id="Layer_4">
	<path class="st0" d="M37.1,36.5c-0.3-0.5-0.5-1.1-0.6-1.6L35.9,33l6.2-6h7.3c1,0,2.1,0.1,3.1,0.4l0,0c4.1,1,7.4,4,8.8,7.9L62,37
		l0,0c-2.5,2.5-5.6,4.3-9.1,5.3L37.1,36.5z"/>
	<path class="st1" d="M54,40.1l1.2,1.4c2.5-1,4.9-2.6,6.8-4.5l-0.7-1.7c-1.9-5-6.6-8.3-11.9-8.3h-7.3l-6.2,6l0.5,1.6
		C42.9,32.8,49.8,35,54,40.1L54,40.1z"/>
	<path class="st0" d="M40.4,29.2l-0.5,0l-2,1.9l1.7,0.1l0.6,0c7.4,0.5,14.6,2.8,20.9,6.5c0.3-0.2,0.5-0.5,0.8-0.7l-0.5-1.5
		C55,31.9,47.8,29.7,40.4,29.2z"/>
	<path class="st2" d="M23,48.7L23,48.7c0-0.5,0.1-1,0.3-1.4l0,0c1.7-4.1,5-7.3,9.1-9l2.9-1.2C37.1,36.4,39,36,41,36l0,0
		c4.4,0,8.7,2,11.5,5.4L53,42l0,0c-1.9,6.2-6.8,11-13.1,12.5l-4.7,1.2c-0.8,0.2-1.6,0.3-2.5,0.3l0,0c-3,0-5.9-1.3-7.8-3.7L23.8,51
		C23.3,50.3,23,49.5,23,48.7z"/>
	<path class="st3" d="M37.2,53.7l4.7-1.2c2.8-0.7,5.3-2,7.5-3.8c1.7-1.9,2.9-4.2,3.7-6.7l-0.5-0.6c-4.2-5-11.2-6.8-17.2-4.2
		l-2.9,1.2c-1.6,0.7-3.1,1.6-4.5,2.8c-1.1,1.3-1.9,2.7-2.6,4.2l0,0C24.8,46.6,25,48,25.8,49l1.1,1.4C29.5,53.3,33.4,54.6,37.2,53.7z
		"/>
	<path class="st4" d="M6.7,28.3L6.7,28.3c-3,3-4.7,7.2-4.7,11.4l0,0c0,5.1,4.2,9.3,9.3,9.3l0,0c1.8,0,3.5-0.5,5-1.5l3.4-2.1
		c3.5-2.2,6-5.5,7.3-9.4l0,0l5.1-1.4c3.8-1,7.1-3.4,9.4-6.6l0,0c2.3-3.2,3.5-7.1,3.5-11.1l0,0c0-1.3-0.1-2.5-0.4-3.8L44,10l-3.6-1.2
		C38.8,8.3,37.1,8,35.5,8l0,0c-4.1,0-8.1,1.6-11,4.6l0,0c-2.2,2.2-3.9,5-4.8,8.1l0,0c-0.4,1.4-1.6,2.5-3,2.9L14.5,24
		C11.6,24.7,8.9,26.1,6.7,28.3z"/>
	<path class="st5" d="M44.6,13.1L44,10l-2.6-0.9c-4.8-0.6-9.6,1-13,4.4l0,0c-2.2,2.2-3.9,5-4.8,8.1c-0.4,1.4-1.6,2.5-3,2.9L18.5,25
		c-2.9,0.7-5.6,2.1-7.8,4.3c-3,3-4.7,7.2-4.7,11.4c0,3.5,2,6.7,5.1,8.3c0.1,0,0.1,0,0.2,0l0,0c1.8,0,3.5-0.5,5-1.5l3.4-2.1
		c3.5-2.2,6-5.5,7.3-9.4l5.1-1.4c3.8-1,7.1-3.4,9.4-6.6C44.5,23.7,45.7,18.3,44.6,13.1L44.6,13.1z"/>
	<path class="st6" d="M44.2,11L44,10l-2.1-0.7c-3.7,0.7-7.3,2-10.6,4c-0.8-1.2-1.5-2.6-2.1-3.9l0-0.1c-0.6,0.3-1.2,0.6-1.8,0.9
		c0.6,1.4,1.4,2.8,2.2,4.1c-2.2,1.5-4.1,3.3-5.8,5.4c-0.6-1.2-1.1-2.4-1.5-3.6l-0.3-0.8c-0.5,0.8-1,1.5-1.3,2.4
		c0.5,1.3,1,2.6,1.7,3.9c-0.8,1.2-1.6,2.4-2.2,3.7c-2.5,0.9-4.8,2.1-6.9,3.6c-0.7-1.2-1.3-2.5-1.7-3.8l0-0.1
		c-0.6,0.3-1.2,0.6-1.8,0.9c0.5,1.4,1.2,2.8,1.9,4.2c-2.5,2.1-4.6,4.7-6.2,7.6c-0.7-1.1-1.4-2.2-1.9-3.3l-0.4-0.9
		c-0.4,0.9-0.7,1.8-0.9,2.8c0.6,1.2,1.4,2.4,2.2,3.5c-0.3,0.6-0.5,1.2-0.7,1.9L3,43.9c0.4,0.7,0.8,1.4,1.4,2l1.3-3.7
		C5.8,42,5.9,41.8,6,41.5c1.1,1.2,2.3,2.4,3.6,3.4c-1.2,0.6-2.5,1.2-3.7,1.7l-0.6,0.2c0.6,0.5,1.3,1,2.1,1.3c1.4-0.6,2.8-1.2,4.1-2
		c1.2,0.8,2.4,1.4,3.7,2c0.4-0.2,0.8-0.4,1.1-0.6l1-0.6l-0.7-0.3c-1.1-0.5-2.2-1-3.3-1.7c2.5-1.7,4.9-3.7,6.9-6
		c1.3,0.8,2.6,1.6,4,2.2c0.4-0.5,0.8-1.1,1.1-1.7l-0.1-0.1c-1.3-0.6-2.5-1.2-3.7-2c1.2-1.5,2.2-3,3.1-4.7l2-0.7
		c1.3-0.5,2.5-1,3.7-1.7c1.6,1.1,3.3,2.1,5.1,2.9c0.7-0.4,1.4-0.8,2.1-1.3l-0.6-0.2c-1.6-0.7-3.2-1.5-4.7-2.5
		c2.5-1.7,4.7-3.9,6.4-6.4c1.5,0.9,3,1.6,4.6,2.1c0.3-0.6,0.5-1.2,0.7-1.9h0c-1.5-0.5-2.9-1.2-4.3-2c1-1.9,1.8-3.8,2.3-5.9L40,14.8
		c-0.5,1.9-1.2,3.6-2.1,5.3c-2.1-1.4-3.9-3.2-5.4-5.1c3.4-2.1,7.2-3.4,11.2-3.9L44.2,11z M11.5,43.8c-1.7-1.2-3.3-2.7-4.6-4.3
		c1.5-2.9,3.5-5.6,6-7.7c1.6,2.3,3.5,4.4,5.7,6.1C16.5,40.1,14.2,42.1,11.5,43.8z M26,30.2l-2.4,0.8c-0.2,0.1-0.4,0.2-0.5,0.5
		c-0.9,1.7-2,3.3-3.2,4.8c-2.1-1.6-4-3.6-5.5-5.8c2.1-1.5,4.4-2.7,6.9-3.5c0.3-0.1,0.5-0.3,0.6-0.5c0.5-1,1.1-2.1,1.8-3
		c1.4,2.1,3.1,4,5,5.7C27.8,29.5,26.9,29.9,26,30.2z M36.9,21.8c-1.7,2.5-3.9,4.6-6.4,6.2c-2.2-1.8-4.1-3.9-5.6-6.3
		c1.7-2.2,3.7-4.1,5.9-5.6C32.5,18.3,34.6,20.2,36.9,21.8z"/>
	<path class="st2" d="M52.5,41.4c-0.3-0.3-0.5-0.6-0.8-0.9l-0.9-0.3c-6.6-2.2-13.8-1.3-19.7,2.3l-7.8,4.9c-0.3,0.8-0.3,1.6-0.1,2.4
		l0.3-0.2l8.6-5.4c5.4-3.4,12-4.1,18-2.1l2.5,0.8l0.1,0c0.1-0.3,0.2-0.6,0.3-0.9L52.5,41.4z"/>
</g>
</svg>
