<?xml version="1.0" encoding="utf-8"?>
<!-- Generator: Adobe Illustrator 27.5.0, SVG Export Plug-In . SVG Version: 6.00 Build 0)  -->
<svg version="1.1" id="Layer_1" xmlns="http://www.w3.org/2000/svg" xmlns:xlink="http://www.w3.org/1999/xlink" x="0px" y="0px"
	 viewBox="0 0 512 512" style="enable-background:new 0 0 512 512;" xml:space="preserve">
<style type="text/css">
	.st0{fill-rule:evenodd;clip-rule:evenodd;fill:#7E5421;}
	.st1{fill-rule:evenodd;clip-rule:evenodd;fill:#6F4A1F;}

#shaking-walnut:hover{
  transform-origin: center; /* Set the origin of rotation to the center */
  animation-name: rotateAnimation;
  animation-duration: 5s; /* Specify the duration of the animation */
  animation-iteration-count: infinite; /* Make the animation repeat infinitely */
  animation-timing-function: linear; /* Set the timing function for the animation */
  }
</style>
<g id="shaking-walnut">
	<path class="st0" d="M213,502c-3,0-6,0-9,0c-34-1-86-15-137-69C13,381,1,331,0,297s10-57,12-61c22-64,66-115,100-146
		c35-33,65-51,68-52c47-30,96-31,129-26c35,4,59,16,60,17c1,0,1,0,1,0c23,15,45,19,49,20c35-3,47,7,49,9s12,14,7,49c1,4,5,25,19,47
		c0,0,0,1,1,1c0,1,12,25,16,59c3,32,1,79-32,124c-1,2-21,31-56,64c-34,31-87,72-155,91C264,494,243,502,213,502z"/>
	<path class="st1" d="M484,134c1,4,4,9,6,13l0,0c-2,0-46,0-63,36c-20,42-46,51-48,52c0,0-1,0-2,0c-3,0-5-2-6-5c-2-3,0-7,4-9
		c0,0,22-8,39-44S468,135,484,134z"/>
	<g id="_303498616">
		<path class="st1" d="M188,501c-7-1-13-3-20-4c62-42,106-55,109-55l-1,14l0,0l0,0C276,456,239,467,188,501z"/>
		<path class="st1" d="M11,352c-2-6-4-12-6-17c38-55,45-89,45-89l0,0h14C64,249,56,288,11,352z"/>
		<path class="st1" d="M378,34c5,3,10,5,14,7c-2,16-11,52-45,68c-36,18-44,40-44,40c-1,3-4,5-7,5c0,0-1,0-2,0c-4-2-6-6-4-9
			c0-1,9-27,51-48l0,0C375,81,378,39,378,34z"/>
	</g>
	<path class="st1" d="M86,451c-4-3-7-7-11-10c10-15,70-105,164-171c76-52,178-165,223-216c4,2,6,3,6,4c1,1,2,2,4,5
		c-45,52-148,166-225,219C148,351,86,449,86,450V451z"/>
	<path class="st1" d="M374,306c-2,0-5-2-6-4s-4-12,0-21c2-4,6-9,14-12c1,0,1,0,1,0c9-2,19-22,24-35c1-4,5-6,9-5c3,2,5,6,4,9
		c-1,4-14,40-34,45c-4,1-5,3-5,4c-2,3-1,8,0,10c1,3,0,7-4,9C376,306,375,306,374,306z"/>
	<path class="st1" d="M315,298c-3,0-7-3-7-7s3-7,7-7c10,0,17-3,21-9c8-13,5-34,3-42c-2-4,1-8,4-9c4-1,8,1,9,5c0,1,10,34-5,54
		c-7,9-17,14-31,15C315,298,315,298,315,298z"/>
	<path class="st1" d="M171,392c-2,0-5-2-6-4c-2-4,0-8,3-9c30-14,84-41,102-77c2-4,6-5,9-3c4,2,5,6,3,9c-19,38-69,66-108,83
		C173,392,172,392,171,392z"/>
	<path class="st1" d="M204,436c-13,0-23-3-24-3c-3-1-6-5-4-9c1-4,4-6,8-5c0,0,13,4,27,2c18-1,32-9,39-24c22-44,87-68,90-69
		c4-1,8,1,9,5c1,3-1,7-4,9l0,0c-1,0-63,22-83,61c-9,19-27,30-50,32C209,436,207,436,204,436z"/>
	<path class="st1" d="M233,158c-5,0-9-1-10-1c-4-2-6-6-4-9c1-4,5-6,9-5c1,1,6,2,9,0c1,0,3-2,4-5l0,0c5-20,41-33,45-35c4-1,8,1,9,5
		c1,3-1,7-4,9l0,0c-14,4-34,16-37,25c-2,8-6,11-10,13S236,158,233,158z"/>
	<path class="st1" d="M131,206c-3,0-6-2-7-6c-3-18,12-48,15-54l6-27c1-3,5-6,9-5s6,5,5,9l-7,27c0,0,0,1-1,1c-6,13-15,36-13,47
		c1,4-2,7-6,8C132,206,132,206,131,206z"/>
	<path class="st1" d="M127,389c0,0-1,0-2,0c-4-2-6-6-4-9c2-7,55-160,138-147c4,1,7,4,6,8c0,4-4,7-8,6c-37-6-68,31-88,63
		c-22,36-35,74-35,74C133,387,130,389,127,389z"/>
	<path class="st1" d="M98,349c-3,0-6-2-6-5c-1-1-5-15-3-32c1-24,13-41,32-51l0,0c39-19,61-81,62-81c1-4,5-6,9-5c3,2,5,6,4,9
		s-25,68-69,89c-36,18-22,66-22,67c1,4-1,8-5,9C100,349,99,349,98,349z"/>
	<path class="st1" d="M447,259c-1,0-2,0-3-1c-3-1-5-5-3-9c11-24,4-36,3-36h1l11-8c1,2,12,18-2,50C453,257,450,259,447,259z"/>
	<path class="st1" d="M459,319c-1,0-2,0-3-1c-19-10-28-28-28-29c-2-3,0-8,3-9c4-2,8,0,10,3c0,0,7,15,22,23c3,2,4,6,2,9
		C464,318,462,319,459,319z"/>
	<path class="st1" d="M254,96c-4,0-7-3-7-7c0-2,1-22,32-39c3-2,7-1,9,3c2,3,1,7-2,9c-24,14-25,27-25,27C261,93,258,96,254,96z"/>
</g>
</svg>
